<svg width="28" height="28" viewBox="0 0 28 28" fill="none" xmlns="http://www.w3.org/2000/svg">
<g id="card-outcoming">
<path id="curve" fill-rule="evenodd" clip-rule="evenodd" d="M8.4 4.25H8.367C7.27485 4.24999 6.40935 4.24999 5.71173 4.30699C4.99834 4.36527 4.39472 4.48688 3.84354 4.76772C2.94977 5.22312 2.22312 5.94978 1.76772 6.84354C1.48688 7.39472 1.36527 7.99834 1.30699 8.71173C1.24999 9.40936 1.24999 10.2749 1.25 11.367L1.25 11.4V16.6L1.25 16.633C1.24999 17.7251 1.24999 18.5906 1.30699 19.2883C1.36527 20.0017 1.48688 20.6053 1.76772 21.1565C2.22312 22.0502 2.94977 22.7769 3.84354 23.2323C4.39472 23.5131 4.99834 23.6347 5.71173 23.693C6.40935 23.75 7.27484 23.75 8.36698 23.75H8.4H17.7893L16.0697 25.4697C15.7768 25.7626 15.7768 26.2374 16.0697 26.5303C16.3626 26.8232 16.8374 26.8232 17.1303 26.5303L20.1303 23.5303C20.4232 23.2374 20.4232 22.7626 20.1303 22.4697L17.1303 19.4697C16.8374 19.1768 16.3626 19.1768 16.0697 19.4697C15.7768 19.7626 15.7768 20.2374 16.0697 20.5303L17.7893 22.25H8.4C7.26752 22.25 6.46326 22.2494 5.83388 22.198C5.21325 22.1473 4.829 22.0509 4.52453 21.8958C3.913 21.5842 3.41581 21.087 3.10423 20.4755C2.94909 20.171 2.85271 19.7867 2.802 19.1661C2.75058 18.5367 2.75 17.7325 2.75 16.6V11.7543H25.25V16.6C25.25 17.7325 25.2494 18.5367 25.198 19.1661C25.1473 19.7867 25.0509 20.171 24.8958 20.4755C24.5842 21.087 24.087 21.5842 23.4755 21.8958C23.1064 22.0838 22.9597 22.5355 23.1477 22.9045C23.3358 23.2736 23.7874 23.4203 24.1565 23.2323C25.0502 22.7769 25.7769 22.0502 26.2323 21.1565C26.5131 20.6053 26.6347 20.0017 26.693 19.2883C26.75 18.5906 26.75 17.7252 26.75 16.633V16.6V11.4V11.367C26.75 10.2748 26.75 9.40935 26.693 8.71173C26.6347 7.99834 26.5131 7.39472 26.2323 6.84355C25.7769 5.94978 25.0502 5.22312 24.1565 4.76772C23.6053 4.48688 23.0017 4.36527 22.2883 4.30699C21.5906 4.24999 20.7251 4.24999 19.633 4.25H19.6H8.4ZM25.2471 10.2543C25.2424 9.6878 25.2301 9.22677 25.198 8.83388C25.1473 8.21325 25.0509 7.829 24.8958 7.52453C24.5842 6.913 24.087 6.41582 23.4755 6.10423C23.171 5.94909 22.7867 5.85271 22.1661 5.80201C21.5367 5.75058 20.7325 5.75 19.6 5.75H8.4C7.26752 5.75 6.46326 5.75058 5.83388 5.80201C5.21325 5.85271 4.829 5.94909 4.52453 6.10423C3.913 6.41582 3.41581 6.913 3.10423 7.52453C2.94909 7.829 2.85271 8.21325 2.802 8.83388C2.7699 9.22677 2.75761 9.6878 2.75291 10.2543H25.2471Z" fill="#001026"/>
</g>
</svg>
